# xmcd
#
# Track frame offsets: 
#        150
#        16548
#        34728
#        48589
#        69740
#        86936
#        101932
#        119267
#        137388
#
# Disc length: 2005 seconds
#
# Revision: 0
# Processed by: cddbd v1.5.2PL0 Copyright (c) Steve Scherf et al.
# Submitted via: ExactAudioCopy v0.99pb3
#
DISCID=7607d309
DTITLE=Pigmuffin Band - Champagne of Maine
DYEAR=2008
DGENRE=Blues
TTITLE0=Champagne of Maine
TTITLE1=Hoey's Bluff
TTITLE2=Let It Return
TTITLE3=Explorer
TTITLE4=Run For Your Life
TTITLE5=No One Home
TTITLE6=The Tide
TTITLE7=Fighting Windmills
TTITLE8=Send It To You
EXTD=
EXTT0=
EXTT1=
EXTT2=
EXTT3=
EXTT4=
EXTT5=
EXTT6=
EXTT7=
EXTT8=
PLAYORDER=
